<?xml version="1.0" encoding="UTF-8"?>
<svg xmlns="http://www.w3.org/2000/svg" width="244" height="364" viewBox="-2 -2 244 364">
  <title>Card back, oval pattern</title>
  <rect x="0" y="0" width="240" height="360" rx="40" ry="40" fill="#ffffff" stroke="#000000" stroke-width="2"/>
  <clipPath id="panel">
    <rect x="20" y="20" width="200" height="320" rx="20" ry="20"/>
  </clipPath>
  <g clip-path="url(#panel)">
    <rect x="20" y="20" width="200" height="320" fill="#000000"/>
    <ellipse cx="64" cy="72" rx="22" ry="20" fill="#ff5555"/>
    <ellipse cx="120" cy="72" rx="22" ry="20" fill="#ffaa00"/>
    <ellipse cx="176" cy="72" rx="22" ry="20" fill="#ff5555"/>
    <ellipse cx="64" cy="126" rx="22" ry="20" fill="#5555ff"/>
    <ellipse cx="120" cy="126" rx="22" ry="20" fill="#ff5555"/>
    <ellipse cx="176" cy="126" rx="22" ry="20" fill="#5555ff"/>
    <ellipse cx="64" cy="180" rx="22" ry="20" fill="#55aa55"/>
    <ellipse cx="120" cy="180" rx="22" ry="20" fill="#5555ff"/>
    <ellipse cx="176" cy="180" rx="22" ry="20" fill="#55aa55"/>
    <ellipse cx="64" cy="234" rx="22" ry="20" fill="#5555ff"/>
    <ellipse cx="120" cy="234" rx="22" ry="20" fill="#ff5555"/>
    <ellipse cx="176" cy="234" rx="22" ry="20" fill="#5555ff"/>
    <ellipse cx="64" cy="288" rx="22" ry="20" fill="#ff5555"/>
    <ellipse cx="120" cy="288" rx="22" ry="20" fill="#ffaa00"/>
    <ellipse cx="176" cy="288" rx="22" ry="20" fill="#ff5555"/>
  </g>
</svg>
