<?xml version='1.0' encoding='utf-8'?>
<svg xmlns="http://www.w3.org/2000/svg" width="244" height="364" viewBox="-2 -2 244 364">
  <!-- Extracted from assets/UNO_cards_deck.svg (Dmitry Fomin, CC0). -->
  <title>Blue 1</title>
  <g transform="matrix(4 0 0 4 -240 -1329.44872)" id="blue-1">
    <rect width="60" height="90" rx="10" ry="10" x="60" y="332.36218" id="rect2987-41" style="fill:#ffffff;fill-opacity:1;fill-rule:evenodd;stroke:#000000;stroke-width:0.5;stroke-miterlimit:4;stroke-dasharray:none" />
    <rect width="50" height="80" rx="5" ry="5" x="65" y="337.36218" id="rect3757-29" style="fill:#5555ff;fill-opacity:1;fill-rule:evenodd;stroke:none" />
    <path d="m 105,352.36217 c -22.09139,0 -40,17.90861 -40,40 0,5.52285 4.47715,10 10,10 22.09139,0 40,-17.90861 40,-40 0,-5.52285 -4.47715,-10 -10,-10 z" id="path3773-0-4-8-4-0" style="fill:#ffffff;fill-opacity:1;fill-rule:evenodd;stroke:none" />
    <path d="m 88,362.36217 -5,5 0,6 5,-5 0,24 5,0 0,-30 z" id="rect3921-8" style="fill:#5555ff;fill-opacity:1;fill-rule:evenodd;stroke:none" />
    <path d="m 70,339.86217 -2.5,2.5 0,3 2.5,-2.5 0,12 2.5,0 0,-15 z" id="rect3921-5-74" style="fill:#ffffff;fill-opacity:1;fill-rule:evenodd;stroke:none" />
    <path d="m 110,414.86217 2.5,-2.5 0,-3 -2.5,2.5 0,-12 -2.5,0 0,15 z" id="rect3921-5-5-5" style="fill:#ffffff;fill-opacity:1;fill-rule:evenodd;stroke:none" />
  </g>
</svg>